<?xml version="1.0" standalone="no"?>
<!DOCTYPE svg PUBLIC "-//W3C//DTD SVG 20010904//EN"
 "http://www.w3.org/TR/2001/REC-SVG-20010904/DTD/svg10.dtd">
<svg version="1.0" xmlns="http://www.w3.org/2000/svg"
 width="512.000000pt" height="512.000000pt" viewBox="0 0 512.000000 512.000000"
 preserveAspectRatio="xMidYMid meet">

<g transform="translate(0.000000,512.000000) scale(0.100000,-0.100000)"
fill="#000000" stroke="none">
<path d="M1435 4664 c-42 -21 -962 -942 -980 -981 -19 -40 -19 -96 1 -136 9
-18 230 -247 492 -509 l477 -478 -477 -477 c-262 -263 -483 -492 -492 -510
-18 -37 -21 -89 -5 -130 13 -36 943 -968 985 -988 41 -19 97 -19 137 1 18 9
247 230 510 492 l477 477 478 -477 c262 -262 491 -483 509 -492 40 -20 96 -20
137 -1 42 20 972 952 985 988 16 41 13 93 -5 130 -9 18 -230 247 -492 510
l-477 477 477 478 c262 262 483 491 492 509 20 40 20 96 1 137 -20 42 -952
972 -988 985 -41 16 -93 13 -130 -5 -18 -9 -247 -230 -509 -492 l-478 -477
-477 477 c-263 262 -492 483 -510 492 -40 20 -99 20 -138 0z m530 -835 c253
-254 478 -474 499 -490 32 -24 49 -29 95 -29 36 0 66 6 81 16 14 9 240 231
503 493 l477 476 337 -338 338 -337 -476 -477 c-262 -263 -484 -489 -493 -503
-21 -33 -21 -127 0 -160 9 -14 231 -240 493 -503 l476 -477 -338 -337 -337
-338 -477 476 c-263 262 -489 484 -503 493 -33 21 -127 21 -160 0 -14 -9 -240
-231 -503 -493 l-477 -476 -337 338 -338 337 476 477 c262 263 484 489 493
503 21 33 21 127 0 160 -9 14 -231 240 -493 502 l-476 478 335 335 c184 184
337 335 340 335 3 0 212 -207 465 -461z"/>
</g>
</svg>
